<mxfile host="Electron" modified="2025-02-12T19:05:25.978Z" agent="Mozilla/5.0 (Macintosh; Intel Mac OS X 10_15_7) AppleWebKit/537.36 (KHTML, like Gecko) draw.io/24.5.3 Chrome/124.0.6367.207 Electron/30.0.6 Safari/537.36" etag="fp77haIYiGa7U9Rh_3Un" version="24.5.3" type="device">
  <diagram id="C5RBs43oDa-KdzZeNtuy" name="Page-1">
    <mxGraphModel dx="1207" dy="812" grid="1" gridSize="10" guides="1" tooltips="1" connect="1" arrows="1" fold="1" page="1" pageScale="1" pageWidth="827" pageHeight="1169" math="0" shadow="0">
      <root>
        <mxCell id="WIyWlLk6GJQsqaUBKTNV-0" />
        <mxCell id="WIyWlLk6GJQsqaUBKTNV-1" parent="WIyWlLk6GJQsqaUBKTNV-0" />
        <mxCell id="zkfFHV4jXpPFQw0GAbJ--0" value="&lt;&lt;abstract&gt;&gt;&#xa;Log" style="swimlane;fontStyle=2;align=center;verticalAlign=top;childLayout=stackLayout;horizontal=1;startSize=40;horizontalStack=0;resizeParent=1;resizeLast=0;collapsible=1;marginBottom=0;rounded=0;shadow=0;strokeWidth=1;" parent="WIyWlLk6GJQsqaUBKTNV-1" vertex="1">
          <mxGeometry x="180" y="10" width="480" height="158" as="geometry">
            <mxRectangle x="220" y="120" width="160" height="26" as="alternateBounds" />
          </mxGeometry>
        </mxCell>
        <mxCell id="zkfFHV4jXpPFQw0GAbJ--4" value="" style="line;html=1;strokeWidth=1;align=left;verticalAlign=middle;spacingTop=-1;spacingLeft=3;spacingRight=3;rotatable=0;labelPosition=right;points=[];portConstraint=eastwest;" parent="zkfFHV4jXpPFQw0GAbJ--0" vertex="1">
          <mxGeometry y="40" width="480" height="8" as="geometry" />
        </mxCell>
        <mxCell id="zkfFHV4jXpPFQw0GAbJ--5" value="+ getFileHashByFileName(fileName: String, fileExtension: String): String" style="text;align=left;verticalAlign=top;spacingLeft=4;spacingRight=4;overflow=hidden;rotatable=0;points=[[0,0.5],[1,0.5]];portConstraint=eastwest;" parent="zkfFHV4jXpPFQw0GAbJ--0" vertex="1">
          <mxGeometry y="48" width="480" height="26" as="geometry" />
        </mxCell>
        <mxCell id="hqegpH38QEARUHd4Mwe3-142" value="+ getMigrationLogFileHashByFileName(fileName: String, fileExtension: String): String" style="text;align=left;verticalAlign=top;spacingLeft=4;spacingRight=4;overflow=hidden;rotatable=0;points=[[0,0.5],[1,0.5]];portConstraint=eastwest;" vertex="1" parent="zkfFHV4jXpPFQw0GAbJ--0">
          <mxGeometry y="74" width="480" height="26" as="geometry" />
        </mxCell>
        <mxCell id="hqegpH38QEARUHd4Mwe3-143" value="- generateFileHash(byteArray: ByteArray): String" style="text;align=left;verticalAlign=top;spacingLeft=4;spacingRight=4;overflow=hidden;rotatable=0;points=[[0,0.5],[1,0.5]];portConstraint=eastwest;" vertex="1" parent="zkfFHV4jXpPFQw0GAbJ--0">
          <mxGeometry y="100" width="480" height="26" as="geometry" />
        </mxCell>
        <mxCell id="zkfFHV4jXpPFQw0GAbJ--6" value="DatabaseChangeLog" style="swimlane;fontStyle=0;align=center;verticalAlign=top;childLayout=stackLayout;horizontal=1;startSize=26;horizontalStack=0;resizeParent=1;resizeLast=0;collapsible=1;marginBottom=0;rounded=0;shadow=0;strokeWidth=1;" parent="WIyWlLk6GJQsqaUBKTNV-1" vertex="1">
          <mxGeometry x="60" y="360" width="220" height="320" as="geometry">
            <mxRectangle x="130" y="380" width="160" height="26" as="alternateBounds" />
          </mxGeometry>
        </mxCell>
        <mxCell id="zkfFHV4jXpPFQw0GAbJ--8" value="+ _id: UUID" style="text;align=left;verticalAlign=top;spacingLeft=4;spacingRight=4;overflow=hidden;rotatable=0;points=[[0,0.5],[1,0.5]];portConstraint=eastwest;rounded=0;shadow=0;html=0;" parent="zkfFHV4jXpPFQw0GAbJ--6" vertex="1">
          <mxGeometry y="26" width="220" height="24" as="geometry" />
        </mxCell>
        <mxCell id="hqegpH38QEARUHd4Mwe3-8" value="+ databaseChangeLogName: String" style="text;align=left;verticalAlign=top;spacingLeft=4;spacingRight=4;overflow=hidden;rotatable=0;points=[[0,0.5],[1,0.5]];portConstraint=eastwest;rounded=0;shadow=0;html=0;" vertex="1" parent="zkfFHV4jXpPFQw0GAbJ--6">
          <mxGeometry y="50" width="220" height="24" as="geometry" />
        </mxCell>
        <mxCell id="hqegpH38QEARUHd4Mwe3-49" value="+ databaseChangeLogId: String" style="text;align=left;verticalAlign=top;spacingLeft=4;spacingRight=4;overflow=hidden;rotatable=0;points=[[0,0.5],[1,0.5]];portConstraint=eastwest;rounded=0;shadow=0;html=0;" vertex="1" parent="zkfFHV4jXpPFQw0GAbJ--6">
          <mxGeometry y="74" width="220" height="24" as="geometry" />
        </mxCell>
        <mxCell id="hqegpH38QEARUHd4Mwe3-10" value="+ fileName: String" style="text;align=left;verticalAlign=top;spacingLeft=4;spacingRight=4;overflow=hidden;rotatable=0;points=[[0,0.5],[1,0.5]];portConstraint=eastwest;rounded=0;shadow=0;html=0;" vertex="1" parent="zkfFHV4jXpPFQw0GAbJ--6">
          <mxGeometry y="98" width="220" height="24" as="geometry" />
        </mxCell>
        <mxCell id="hqegpH38QEARUHd4Mwe3-11" value="+ fileType: FileType" style="text;align=left;verticalAlign=top;spacingLeft=4;spacingRight=4;overflow=hidden;rotatable=0;points=[[0,0.5],[1,0.5]];portConstraint=eastwest;rounded=0;shadow=0;html=0;" vertex="1" parent="zkfFHV4jXpPFQw0GAbJ--6">
          <mxGeometry y="122" width="220" height="24" as="geometry" />
        </mxCell>
        <mxCell id="hqegpH38QEARUHd4Mwe3-12" value="+ category: Category" style="text;align=left;verticalAlign=top;spacingLeft=4;spacingRight=4;overflow=hidden;rotatable=0;points=[[0,0.5],[1,0.5]];portConstraint=eastwest;rounded=0;shadow=0;html=0;" vertex="1" parent="zkfFHV4jXpPFQw0GAbJ--6">
          <mxGeometry y="146" width="220" height="24" as="geometry" />
        </mxCell>
        <mxCell id="hqegpH38QEARUHd4Mwe3-13" value="+ description: String" style="text;align=left;verticalAlign=top;spacingLeft=4;spacingRight=4;overflow=hidden;rotatable=0;points=[[0,0.5],[1,0.5]];portConstraint=eastwest;rounded=0;shadow=0;html=0;" vertex="1" parent="zkfFHV4jXpPFQw0GAbJ--6">
          <mxGeometry y="170" width="220" height="24" as="geometry" />
        </mxCell>
        <mxCell id="hqegpH38QEARUHd4Mwe3-56" value="+ createdDatetime: Datetime" style="text;align=left;verticalAlign=top;spacingLeft=4;spacingRight=4;overflow=hidden;rotatable=0;points=[[0,0.5],[1,0.5]];portConstraint=eastwest;rounded=0;shadow=0;html=0;" vertex="1" parent="zkfFHV4jXpPFQw0GAbJ--6">
          <mxGeometry y="194" width="220" height="24" as="geometry" />
        </mxCell>
        <mxCell id="hqegpH38QEARUHd4Mwe3-14" value="+ comment: String &lt;&lt;optional&gt;&gt;" style="text;align=left;verticalAlign=top;spacingLeft=4;spacingRight=4;overflow=hidden;rotatable=0;points=[[0,0.5],[1,0.5]];portConstraint=eastwest;rounded=0;shadow=0;html=0;" vertex="1" parent="zkfFHV4jXpPFQw0GAbJ--6">
          <mxGeometry y="218" width="220" height="24" as="geometry" />
        </mxCell>
        <mxCell id="hqegpH38QEARUHd4Mwe3-15" value="- fileHash: String" style="text;align=left;verticalAlign=top;spacingLeft=4;spacingRight=4;overflow=hidden;rotatable=0;points=[[0,0.5],[1,0.5]];portConstraint=eastwest;rounded=0;shadow=0;html=0;" vertex="1" parent="zkfFHV4jXpPFQw0GAbJ--6">
          <mxGeometry y="242" width="220" height="24" as="geometry" />
        </mxCell>
        <mxCell id="hqegpH38QEARUHd4Mwe3-139" value="- fileExtension: String &lt;&lt;transition&gt;&gt;" style="text;align=left;verticalAlign=top;spacingLeft=4;spacingRight=4;overflow=hidden;rotatable=0;points=[[0,0.5],[1,0.5]];portConstraint=eastwest;rounded=0;shadow=0;html=0;" vertex="1" parent="zkfFHV4jXpPFQw0GAbJ--6">
          <mxGeometry y="266" width="220" height="24" as="geometry" />
        </mxCell>
        <mxCell id="zkfFHV4jXpPFQw0GAbJ--9" value="" style="line;html=1;strokeWidth=1;align=left;verticalAlign=middle;spacingTop=-1;spacingLeft=3;spacingRight=3;rotatable=0;labelPosition=right;points=[];portConstraint=eastwest;" parent="zkfFHV4jXpPFQw0GAbJ--6" vertex="1">
          <mxGeometry y="290" width="220" height="8" as="geometry" />
        </mxCell>
        <mxCell id="zkfFHV4jXpPFQw0GAbJ--17" value="ChangeLog" style="swimlane;fontStyle=0;align=center;verticalAlign=top;childLayout=stackLayout;horizontal=1;startSize=26;horizontalStack=0;resizeParent=1;resizeLast=0;collapsible=1;marginBottom=0;rounded=0;shadow=0;strokeWidth=1;" parent="WIyWlLk6GJQsqaUBKTNV-1" vertex="1">
          <mxGeometry x="550" y="360" width="210" height="300" as="geometry">
            <mxRectangle x="550" y="140" width="160" height="26" as="alternateBounds" />
          </mxGeometry>
        </mxCell>
        <mxCell id="zkfFHV4jXpPFQw0GAbJ--18" value="+ _id: UUID" style="text;align=left;verticalAlign=top;spacingLeft=4;spacingRight=4;overflow=hidden;rotatable=0;points=[[0,0.5],[1,0.5]];portConstraint=eastwest;" parent="zkfFHV4jXpPFQw0GAbJ--17" vertex="1">
          <mxGeometry y="26" width="210" height="26" as="geometry" />
        </mxCell>
        <mxCell id="zkfFHV4jXpPFQw0GAbJ--19" value="+ changeLogName: String" style="text;align=left;verticalAlign=top;spacingLeft=4;spacingRight=4;overflow=hidden;rotatable=0;points=[[0,0.5],[1,0.5]];portConstraint=eastwest;rounded=0;shadow=0;html=0;" parent="zkfFHV4jXpPFQw0GAbJ--17" vertex="1">
          <mxGeometry y="52" width="210" height="26" as="geometry" />
        </mxCell>
        <mxCell id="hqegpH38QEARUHd4Mwe3-51" value="+ changeLogId: String" style="text;align=left;verticalAlign=top;spacingLeft=4;spacingRight=4;overflow=hidden;rotatable=0;points=[[0,0.5],[1,0.5]];portConstraint=eastwest;rounded=0;shadow=0;html=0;" vertex="1" parent="zkfFHV4jXpPFQw0GAbJ--17">
          <mxGeometry y="78" width="210" height="26" as="geometry" />
        </mxCell>
        <mxCell id="zkfFHV4jXpPFQw0GAbJ--20" value="+ fileName: String" style="text;align=left;verticalAlign=top;spacingLeft=4;spacingRight=4;overflow=hidden;rotatable=0;points=[[0,0.5],[1,0.5]];portConstraint=eastwest;rounded=0;shadow=0;html=0;" parent="zkfFHV4jXpPFQw0GAbJ--17" vertex="1">
          <mxGeometry y="104" width="210" height="26" as="geometry" />
        </mxCell>
        <mxCell id="zkfFHV4jXpPFQw0GAbJ--21" value="+ fileType: FileType" style="text;align=left;verticalAlign=top;spacingLeft=4;spacingRight=4;overflow=hidden;rotatable=0;points=[[0,0.5],[1,0.5]];portConstraint=eastwest;rounded=0;shadow=0;html=0;" parent="zkfFHV4jXpPFQw0GAbJ--17" vertex="1">
          <mxGeometry y="130" width="210" height="26" as="geometry" />
        </mxCell>
        <mxCell id="zkfFHV4jXpPFQw0GAbJ--22" value="+ category: Category" style="text;align=left;verticalAlign=top;spacingLeft=4;spacingRight=4;overflow=hidden;rotatable=0;points=[[0,0.5],[1,0.5]];portConstraint=eastwest;rounded=0;shadow=0;html=0;" parent="zkfFHV4jXpPFQw0GAbJ--17" vertex="1">
          <mxGeometry y="156" width="210" height="26" as="geometry" />
        </mxCell>
        <mxCell id="hqegpH38QEARUHd4Mwe3-18" value="+ description: String" style="text;align=left;verticalAlign=top;spacingLeft=4;spacingRight=4;overflow=hidden;rotatable=0;points=[[0,0.5],[1,0.5]];portConstraint=eastwest;rounded=0;shadow=0;html=0;" vertex="1" parent="zkfFHV4jXpPFQw0GAbJ--17">
          <mxGeometry y="182" width="210" height="26" as="geometry" />
        </mxCell>
        <mxCell id="hqegpH38QEARUHd4Mwe3-20" value="+ comment: String &lt;&lt;optional&gt;&gt;" style="text;align=left;verticalAlign=top;spacingLeft=4;spacingRight=4;overflow=hidden;rotatable=0;points=[[0,0.5],[1,0.5]];portConstraint=eastwest;rounded=0;shadow=0;html=0;" vertex="1" parent="zkfFHV4jXpPFQw0GAbJ--17">
          <mxGeometry y="208" width="210" height="26" as="geometry" />
        </mxCell>
        <mxCell id="hqegpH38QEARUHd4Mwe3-140" value="- fileExtension: String &lt;&lt;transition&gt;&gt;" style="text;align=left;verticalAlign=top;spacingLeft=4;spacingRight=4;overflow=hidden;rotatable=0;points=[[0,0.5],[1,0.5]];portConstraint=eastwest;rounded=0;shadow=0;html=0;" vertex="1" parent="zkfFHV4jXpPFQw0GAbJ--17">
          <mxGeometry y="234" width="210" height="26" as="geometry" />
        </mxCell>
        <mxCell id="zkfFHV4jXpPFQw0GAbJ--23" value="" style="line;html=1;strokeWidth=1;align=left;verticalAlign=middle;spacingTop=-1;spacingLeft=3;spacingRight=3;rotatable=0;labelPosition=right;points=[];portConstraint=eastwest;" parent="zkfFHV4jXpPFQw0GAbJ--17" vertex="1">
          <mxGeometry y="260" width="210" height="8" as="geometry" />
        </mxCell>
        <mxCell id="hqegpH38QEARUHd4Mwe3-22" value="MigrationLog" style="swimlane;fontStyle=0;align=center;verticalAlign=top;childLayout=stackLayout;horizontal=1;startSize=26;horizontalStack=0;resizeParent=1;resizeLast=0;collapsible=1;marginBottom=0;rounded=0;shadow=0;strokeWidth=1;" vertex="1" parent="WIyWlLk6GJQsqaUBKTNV-1">
          <mxGeometry x="320" y="360" width="200" height="290" as="geometry">
            <mxRectangle x="550" y="140" width="160" height="26" as="alternateBounds" />
          </mxGeometry>
        </mxCell>
        <mxCell id="hqegpH38QEARUHd4Mwe3-23" value="+ _id: UUID" style="text;align=left;verticalAlign=top;spacingLeft=4;spacingRight=4;overflow=hidden;rotatable=0;points=[[0,0.5],[1,0.5]];portConstraint=eastwest;" vertex="1" parent="hqegpH38QEARUHd4Mwe3-22">
          <mxGeometry y="26" width="200" height="26" as="geometry" />
        </mxCell>
        <mxCell id="hqegpH38QEARUHd4Mwe3-24" value="+ migrationLogName: String" style="text;align=left;verticalAlign=top;spacingLeft=4;spacingRight=4;overflow=hidden;rotatable=0;points=[[0,0.5],[1,0.5]];portConstraint=eastwest;rounded=0;shadow=0;html=0;" vertex="1" parent="hqegpH38QEARUHd4Mwe3-22">
          <mxGeometry y="52" width="200" height="26" as="geometry" />
        </mxCell>
        <mxCell id="hqegpH38QEARUHd4Mwe3-50" value="+ migrationLogId: String" style="text;align=left;verticalAlign=top;spacingLeft=4;spacingRight=4;overflow=hidden;rotatable=0;points=[[0,0.5],[1,0.5]];portConstraint=eastwest;rounded=0;shadow=0;html=0;" vertex="1" parent="hqegpH38QEARUHd4Mwe3-22">
          <mxGeometry y="78" width="200" height="26" as="geometry" />
        </mxCell>
        <mxCell id="hqegpH38QEARUHd4Mwe3-25" value="+ fileName: String" style="text;align=left;verticalAlign=top;spacingLeft=4;spacingRight=4;overflow=hidden;rotatable=0;points=[[0,0.5],[1,0.5]];portConstraint=eastwest;rounded=0;shadow=0;html=0;" vertex="1" parent="hqegpH38QEARUHd4Mwe3-22">
          <mxGeometry y="104" width="200" height="26" as="geometry" />
        </mxCell>
        <mxCell id="hqegpH38QEARUHd4Mwe3-27" value="+ category: Category" style="text;align=left;verticalAlign=top;spacingLeft=4;spacingRight=4;overflow=hidden;rotatable=0;points=[[0,0.5],[1,0.5]];portConstraint=eastwest;rounded=0;shadow=0;html=0;" vertex="1" parent="hqegpH38QEARUHd4Mwe3-22">
          <mxGeometry y="130" width="200" height="26" as="geometry" />
        </mxCell>
        <mxCell id="hqegpH38QEARUHd4Mwe3-28" value="+ description: String" style="text;align=left;verticalAlign=top;spacingLeft=4;spacingRight=4;overflow=hidden;rotatable=0;points=[[0,0.5],[1,0.5]];portConstraint=eastwest;rounded=0;shadow=0;html=0;" vertex="1" parent="hqegpH38QEARUHd4Mwe3-22">
          <mxGeometry y="156" width="200" height="26" as="geometry" />
        </mxCell>
        <mxCell id="hqegpH38QEARUHd4Mwe3-57" value="+ createdDatetime: Datetime" style="text;align=left;verticalAlign=top;spacingLeft=4;spacingRight=4;overflow=hidden;rotatable=0;points=[[0,0.5],[1,0.5]];portConstraint=eastwest;rounded=0;shadow=0;html=0;" vertex="1" parent="hqegpH38QEARUHd4Mwe3-22">
          <mxGeometry y="182" width="200" height="26" as="geometry" />
        </mxCell>
        <mxCell id="hqegpH38QEARUHd4Mwe3-29" value="+ comment: String &lt;&lt;optional&gt;&gt;" style="text;align=left;verticalAlign=top;spacingLeft=4;spacingRight=4;overflow=hidden;rotatable=0;points=[[0,0.5],[1,0.5]];portConstraint=eastwest;rounded=0;shadow=0;html=0;" vertex="1" parent="hqegpH38QEARUHd4Mwe3-22">
          <mxGeometry y="208" width="200" height="26" as="geometry" />
        </mxCell>
        <mxCell id="hqegpH38QEARUHd4Mwe3-30" value="- fileHash: String" style="text;align=left;verticalAlign=top;spacingLeft=4;spacingRight=4;overflow=hidden;rotatable=0;points=[[0,0.5],[1,0.5]];portConstraint=eastwest;rounded=0;shadow=0;html=0;" vertex="1" parent="hqegpH38QEARUHd4Mwe3-22">
          <mxGeometry y="234" width="200" height="26" as="geometry" />
        </mxCell>
        <mxCell id="hqegpH38QEARUHd4Mwe3-31" value="" style="line;html=1;strokeWidth=1;align=left;verticalAlign=middle;spacingTop=-1;spacingLeft=3;spacingRight=3;rotatable=0;labelPosition=right;points=[];portConstraint=eastwest;" vertex="1" parent="hqegpH38QEARUHd4Mwe3-22">
          <mxGeometry y="260" width="200" height="8" as="geometry" />
        </mxCell>
        <mxCell id="hqegpH38QEARUHd4Mwe3-34" value="Extends" style="endArrow=block;endSize=16;endFill=0;html=1;rounded=0;exitX=0.5;exitY=0;exitDx=0;exitDy=0;entryX=0.5;entryY=1;entryDx=0;entryDy=0;edgeStyle=orthogonalEdgeStyle;" edge="1" parent="WIyWlLk6GJQsqaUBKTNV-1" source="zkfFHV4jXpPFQw0GAbJ--6" target="zkfFHV4jXpPFQw0GAbJ--0">
          <mxGeometry width="160" relative="1" as="geometry">
            <mxPoint x="310" y="340" as="sourcePoint" />
            <mxPoint x="470" y="340" as="targetPoint" />
          </mxGeometry>
        </mxCell>
        <mxCell id="hqegpH38QEARUHd4Mwe3-35" value="Extends" style="endArrow=block;endSize=16;endFill=0;html=1;rounded=0;exitX=0.5;exitY=0;exitDx=0;exitDy=0;entryX=0.5;entryY=1;entryDx=0;entryDy=0;edgeStyle=orthogonalEdgeStyle;" edge="1" parent="WIyWlLk6GJQsqaUBKTNV-1" source="hqegpH38QEARUHd4Mwe3-22" target="zkfFHV4jXpPFQw0GAbJ--0">
          <mxGeometry width="160" relative="1" as="geometry">
            <mxPoint x="330" y="370" as="sourcePoint" />
            <mxPoint x="490" y="370" as="targetPoint" />
          </mxGeometry>
        </mxCell>
        <mxCell id="hqegpH38QEARUHd4Mwe3-37" value="Extends" style="endArrow=block;endSize=16;endFill=0;html=1;rounded=0;edgeStyle=orthogonalEdgeStyle;exitX=0.5;exitY=0;exitDx=0;exitDy=0;" edge="1" parent="WIyWlLk6GJQsqaUBKTNV-1">
          <mxGeometry width="160" relative="1" as="geometry">
            <mxPoint x="650" y="360" as="sourcePoint" />
            <mxPoint x="420" y="168" as="targetPoint" />
            <Array as="points">
              <mxPoint x="650" y="260" />
              <mxPoint x="421" y="260" />
            </Array>
          </mxGeometry>
        </mxCell>
        <mxCell id="hqegpH38QEARUHd4Mwe3-38" value="&lt;div&gt;&amp;lt;&amp;lt;enumeration&amp;gt;&amp;gt;&lt;/div&gt;Category" style="swimlane;fontStyle=0;childLayout=stackLayout;horizontal=1;startSize=30;fillColor=none;horizontalStack=0;resizeParent=1;resizeParentMax=0;resizeLast=0;collapsible=1;marginBottom=0;whiteSpace=wrap;html=1;" vertex="1" parent="WIyWlLk6GJQsqaUBKTNV-1">
          <mxGeometry x="60" y="694" width="140" height="108" as="geometry" />
        </mxCell>
        <mxCell id="hqegpH38QEARUHd4Mwe3-39" value="SCHEMA" style="text;strokeColor=none;fillColor=none;align=left;verticalAlign=top;spacingLeft=4;spacingRight=4;overflow=hidden;rotatable=0;points=[[0,0.5],[1,0.5]];portConstraint=eastwest;whiteSpace=wrap;html=1;" vertex="1" parent="hqegpH38QEARUHd4Mwe3-38">
          <mxGeometry y="30" width="140" height="26" as="geometry" />
        </mxCell>
        <mxCell id="hqegpH38QEARUHd4Mwe3-40" value="DATA" style="text;strokeColor=none;fillColor=none;align=left;verticalAlign=top;spacingLeft=4;spacingRight=4;overflow=hidden;rotatable=0;points=[[0,0.5],[1,0.5]];portConstraint=eastwest;whiteSpace=wrap;html=1;" vertex="1" parent="hqegpH38QEARUHd4Mwe3-38">
          <mxGeometry y="56" width="140" height="26" as="geometry" />
        </mxCell>
        <mxCell id="hqegpH38QEARUHd4Mwe3-41" value="SCHEMA_AND_DATA" style="text;strokeColor=none;fillColor=none;align=left;verticalAlign=top;spacingLeft=4;spacingRight=4;overflow=hidden;rotatable=0;points=[[0,0.5],[1,0.5]];portConstraint=eastwest;whiteSpace=wrap;html=1;" vertex="1" parent="hqegpH38QEARUHd4Mwe3-38">
          <mxGeometry y="82" width="140" height="26" as="geometry" />
        </mxCell>
        <mxCell id="hqegpH38QEARUHd4Mwe3-42" value="&lt;div&gt;&amp;lt;&amp;lt;enumeration&amp;gt;&amp;gt;&lt;/div&gt;FileType" style="swimlane;fontStyle=0;childLayout=stackLayout;horizontal=1;startSize=30;fillColor=none;horizontalStack=0;resizeParent=1;resizeParentMax=0;resizeLast=0;collapsible=1;marginBottom=0;whiteSpace=wrap;html=1;" vertex="1" parent="WIyWlLk6GJQsqaUBKTNV-1">
          <mxGeometry x="210" y="694" width="140" height="82" as="geometry" />
        </mxCell>
        <mxCell id="hqegpH38QEARUHd4Mwe3-43" value="KOTLIN" style="text;strokeColor=none;fillColor=none;align=left;verticalAlign=top;spacingLeft=4;spacingRight=4;overflow=hidden;rotatable=0;points=[[0,0.5],[1,0.5]];portConstraint=eastwest;whiteSpace=wrap;html=1;" vertex="1" parent="hqegpH38QEARUHd4Mwe3-42">
          <mxGeometry y="30" width="140" height="26" as="geometry" />
        </mxCell>
        <mxCell id="hqegpH38QEARUHd4Mwe3-44" value="JSON" style="text;strokeColor=none;fillColor=none;align=left;verticalAlign=top;spacingLeft=4;spacingRight=4;overflow=hidden;rotatable=0;points=[[0,0.5],[1,0.5]];portConstraint=eastwest;whiteSpace=wrap;html=1;" vertex="1" parent="hqegpH38QEARUHd4Mwe3-42">
          <mxGeometry y="56" width="140" height="26" as="geometry" />
        </mxCell>
        <mxCell id="hqegpH38QEARUHd4Mwe3-52" value="Constants" style="swimlane;fontStyle=0;childLayout=stackLayout;horizontal=1;startSize=26;fillColor=none;horizontalStack=0;resizeParent=1;resizeParentMax=0;resizeLast=0;collapsible=1;marginBottom=0;whiteSpace=wrap;html=1;" vertex="1" parent="WIyWlLk6GJQsqaUBKTNV-1">
          <mxGeometry x="360" y="694" width="170" height="52" as="geometry" />
        </mxCell>
        <mxCell id="hqegpH38QEARUHd4Mwe3-53" value="&lt;span style=&quot;text-wrap: nowrap;&quot;&gt;+ SCRIPTS_PATH: String&lt;/span&gt;" style="text;strokeColor=none;fillColor=none;align=left;verticalAlign=top;spacingLeft=4;spacingRight=4;overflow=hidden;rotatable=0;points=[[0,0.5],[1,0.5]];portConstraint=eastwest;whiteSpace=wrap;html=1;" vertex="1" parent="hqegpH38QEARUHd4Mwe3-52">
          <mxGeometry y="26" width="170" height="26" as="geometry" />
        </mxCell>
        <mxCell id="hqegpH38QEARUHd4Mwe3-58" value="Database Migration" style="shape=umlFrame;whiteSpace=wrap;html=1;pointerEvents=0;width=140;height=30;" vertex="1" parent="WIyWlLk6GJQsqaUBKTNV-1">
          <mxGeometry x="60" y="830" width="830" height="520" as="geometry" />
        </mxCell>
        <mxCell id="hqegpH38QEARUHd4Mwe3-71" value=":Spring Boot" style="shape=umlLifeline;perimeter=lifelinePerimeter;whiteSpace=wrap;html=1;container=1;dropTarget=0;collapsible=0;recursiveResize=0;outlineConnect=0;portConstraint=eastwest;newEdgeStyle={&quot;curved&quot;:0,&quot;rounded&quot;:0};" vertex="1" parent="WIyWlLk6GJQsqaUBKTNV-1">
          <mxGeometry x="120" y="875" width="100" height="455" as="geometry" />
        </mxCell>
        <mxCell id="hqegpH38QEARUHd4Mwe3-83" value="" style="html=1;points=[[0,0,0,0,5],[0,1,0,0,-5],[1,0,0,0,5],[1,1,0,0,-5]];perimeter=orthogonalPerimeter;outlineConnect=0;targetShapes=umlLifeline;portConstraint=eastwest;newEdgeStyle={&quot;curved&quot;:0,&quot;rounded&quot;:0};" vertex="1" parent="hqegpH38QEARUHd4Mwe3-71">
          <mxGeometry x="45" y="72" width="10" height="348" as="geometry" />
        </mxCell>
        <mxCell id="hqegpH38QEARUHd4Mwe3-72" value=":MigrationConfiguration" style="shape=umlLifeline;perimeter=lifelinePerimeter;whiteSpace=wrap;html=1;container=1;dropTarget=0;collapsible=0;recursiveResize=0;outlineConnect=0;portConstraint=eastwest;newEdgeStyle={&quot;curved&quot;:0,&quot;rounded&quot;:0};" vertex="1" parent="WIyWlLk6GJQsqaUBKTNV-1">
          <mxGeometry x="250" y="875" width="140" height="455" as="geometry" />
        </mxCell>
        <mxCell id="hqegpH38QEARUHd4Mwe3-88" value="" style="html=1;points=[[0,0,0,0,5],[0,1,0,0,-5],[1,0,0,0,5],[1,1,0,0,-5]];perimeter=orthogonalPerimeter;outlineConnect=0;targetShapes=umlLifeline;portConstraint=eastwest;newEdgeStyle={&quot;curved&quot;:0,&quot;rounded&quot;:0};" vertex="1" parent="hqegpH38QEARUHd4Mwe3-72">
          <mxGeometry x="65" y="72" width="10" height="338" as="geometry" />
        </mxCell>
        <mxCell id="hqegpH38QEARUHd4Mwe3-73" value=":Database" style="shape=umlLifeline;perimeter=lifelinePerimeter;whiteSpace=wrap;html=1;container=1;dropTarget=0;collapsible=0;recursiveResize=0;outlineConnect=0;portConstraint=eastwest;newEdgeStyle={&quot;curved&quot;:0,&quot;rounded&quot;:0};" vertex="1" parent="WIyWlLk6GJQsqaUBKTNV-1">
          <mxGeometry x="749" y="875" width="70" height="355" as="geometry" />
        </mxCell>
        <mxCell id="hqegpH38QEARUHd4Mwe3-74" value=":ChangeLog" style="shape=umlLifeline;perimeter=lifelinePerimeter;whiteSpace=wrap;html=1;container=1;dropTarget=0;collapsible=0;recursiveResize=0;outlineConnect=0;portConstraint=eastwest;newEdgeStyle={&quot;curved&quot;:0,&quot;rounded&quot;:0};" vertex="1" parent="WIyWlLk6GJQsqaUBKTNV-1">
          <mxGeometry x="414" y="875" width="90" height="455" as="geometry" />
        </mxCell>
        <mxCell id="hqegpH38QEARUHd4Mwe3-90" value="" style="html=1;points=[[0,0,0,0,5],[0,1,0,0,-5],[1,0,0,0,5],[1,1,0,0,-5]];perimeter=orthogonalPerimeter;outlineConnect=0;targetShapes=umlLifeline;portConstraint=eastwest;newEdgeStyle={&quot;curved&quot;:0,&quot;rounded&quot;:0};" vertex="1" parent="hqegpH38QEARUHd4Mwe3-74">
          <mxGeometry x="40" y="87" width="10" height="323" as="geometry" />
        </mxCell>
        <mxCell id="hqegpH38QEARUHd4Mwe3-75" value="Scripts" style="shape=umlLifeline;perimeter=lifelinePerimeter;whiteSpace=wrap;html=1;container=1;dropTarget=0;collapsible=0;recursiveResize=0;outlineConnect=0;portConstraint=eastwest;newEdgeStyle={&quot;curved&quot;:0,&quot;rounded&quot;:0};" vertex="1" parent="WIyWlLk6GJQsqaUBKTNV-1">
          <mxGeometry x="629" y="875" width="70" height="355" as="geometry" />
        </mxCell>
        <mxCell id="hqegpH38QEARUHd4Mwe3-81" value="" style="endArrow=classic;html=1;rounded=0;entryX=0;entryY=0;entryDx=0;entryDy=5;entryPerimeter=0;" edge="1" parent="WIyWlLk6GJQsqaUBKTNV-1" target="hqegpH38QEARUHd4Mwe3-90">
          <mxGeometry width="50" height="50" relative="1" as="geometry">
            <mxPoint x="325" y="967.0999999999999" as="sourcePoint" />
            <mxPoint x="450" y="967" as="targetPoint" />
          </mxGeometry>
        </mxCell>
        <mxCell id="hqegpH38QEARUHd4Mwe3-82" value="Load Change Log" style="edgeLabel;html=1;align=center;verticalAlign=middle;resizable=0;points=[];" vertex="1" connectable="0" parent="hqegpH38QEARUHd4Mwe3-81">
          <mxGeometry x="0.0543" relative="1" as="geometry">
            <mxPoint x="-3" y="-9" as="offset" />
          </mxGeometry>
        </mxCell>
        <mxCell id="hqegpH38QEARUHd4Mwe3-86" value="" style="endArrow=classic;html=1;rounded=0;exitX=1;exitY=0;exitDx=0;exitDy=5;exitPerimeter=0;entryX=0;entryY=0;entryDx=0;entryDy=5;entryPerimeter=0;" edge="1" parent="WIyWlLk6GJQsqaUBKTNV-1" source="hqegpH38QEARUHd4Mwe3-83" target="hqegpH38QEARUHd4Mwe3-88">
          <mxGeometry width="50" height="50" relative="1" as="geometry">
            <mxPoint x="400" y="1190" as="sourcePoint" />
            <mxPoint x="450" y="1140" as="targetPoint" />
          </mxGeometry>
        </mxCell>
        <mxCell id="hqegpH38QEARUHd4Mwe3-87" value="Application Startup" style="edgeLabel;html=1;align=center;verticalAlign=middle;resizable=0;points=[];" vertex="1" connectable="0" parent="hqegpH38QEARUHd4Mwe3-86">
          <mxGeometry x="-0.2526" y="-1" relative="1" as="geometry">
            <mxPoint x="14" y="-10" as="offset" />
          </mxGeometry>
        </mxCell>
        <mxCell id="hqegpH38QEARUHd4Mwe3-89" value="alt" style="shape=umlFrame;whiteSpace=wrap;html=1;pointerEvents=0;width=45;height=20;" vertex="1" parent="WIyWlLk6GJQsqaUBKTNV-1">
          <mxGeometry x="290" y="991" width="530" height="270" as="geometry" />
        </mxCell>
        <mxCell id="hqegpH38QEARUHd4Mwe3-94" value="" style="html=1;points=[[0,0,0,0,5],[0,1,0,0,-5],[1,0,0,0,5],[1,1,0,0,-5]];perimeter=orthogonalPerimeter;outlineConnect=0;targetShapes=umlLifeline;portConstraint=eastwest;newEdgeStyle={&quot;curved&quot;:0,&quot;rounded&quot;:0};" vertex="1" parent="WIyWlLk6GJQsqaUBKTNV-1">
          <mxGeometry x="779" y="1070" width="10" height="30" as="geometry" />
        </mxCell>
        <mxCell id="hqegpH38QEARUHd4Mwe3-95" value=":Validator" style="shape=umlLifeline;perimeter=lifelinePerimeter;whiteSpace=wrap;html=1;container=1;dropTarget=0;collapsible=0;recursiveResize=0;outlineConnect=0;portConstraint=eastwest;newEdgeStyle={&quot;curved&quot;:0,&quot;rounded&quot;:0};" vertex="1" parent="WIyWlLk6GJQsqaUBKTNV-1">
          <mxGeometry x="520" y="875" width="100" height="455" as="geometry" />
        </mxCell>
        <mxCell id="hqegpH38QEARUHd4Mwe3-96" value="" style="html=1;points=[[0,0,0,0,5],[0,1,0,0,-5],[1,0,0,0,5],[1,1,0,0,-5]];perimeter=orthogonalPerimeter;outlineConnect=0;targetShapes=umlLifeline;portConstraint=eastwest;newEdgeStyle={&quot;curved&quot;:0,&quot;rounded&quot;:0};" vertex="1" parent="hqegpH38QEARUHd4Mwe3-95">
          <mxGeometry x="45" y="88" width="10" height="322" as="geometry" />
        </mxCell>
        <mxCell id="hqegpH38QEARUHd4Mwe3-98" value="" style="endArrow=classic;html=1;rounded=0;" edge="1" parent="WIyWlLk6GJQsqaUBKTNV-1">
          <mxGeometry width="50" height="50" relative="1" as="geometry">
            <mxPoint x="464" y="982.5" as="sourcePoint" />
            <mxPoint x="565" y="982.5" as="targetPoint" />
          </mxGeometry>
        </mxCell>
        <mxCell id="hqegpH38QEARUHd4Mwe3-99" value="Validate Schema" style="text;html=1;align=center;verticalAlign=middle;resizable=0;points=[];autosize=1;strokeColor=none;fillColor=none;fontSize=11;" vertex="1" parent="WIyWlLk6GJQsqaUBKTNV-1">
          <mxGeometry x="452" y="961" width="110" height="30" as="geometry" />
        </mxCell>
        <mxCell id="hqegpH38QEARUHd4Mwe3-100" value="[Change Log is Valid]" style="text;align=center;fontStyle=0;verticalAlign=middle;spacingLeft=3;spacingRight=3;strokeColor=none;rotatable=0;points=[[0,0.5],[1,0.5]];portConstraint=eastwest;html=1;fontSize=10;" vertex="1" parent="WIyWlLk6GJQsqaUBKTNV-1">
          <mxGeometry x="325" y="986" width="109" height="26" as="geometry" />
        </mxCell>
        <mxCell id="hqegpH38QEARUHd4Mwe3-101" value="" style="endArrow=classic;html=1;rounded=0;" edge="1" parent="WIyWlLk6GJQsqaUBKTNV-1">
          <mxGeometry width="50" height="50" relative="1" as="geometry">
            <mxPoint x="565" y="1018.5" as="sourcePoint" />
            <mxPoint x="464" y="1018.5" as="targetPoint" />
          </mxGeometry>
        </mxCell>
        <mxCell id="hqegpH38QEARUHd4Mwe3-102" value="return true" style="edgeLabel;html=1;align=center;verticalAlign=middle;resizable=0;points=[];" vertex="1" connectable="0" parent="hqegpH38QEARUHd4Mwe3-101">
          <mxGeometry x="-0.1089" y="-3" relative="1" as="geometry">
            <mxPoint x="-5" y="-6" as="offset" />
          </mxGeometry>
        </mxCell>
        <mxCell id="hqegpH38QEARUHd4Mwe3-103" value="" style="endArrow=none;dashed=1;html=1;dashPattern=1 3;strokeWidth=2;rounded=0;exitX=0;exitY=0.575;exitDx=0;exitDy=0;exitPerimeter=0;" edge="1" parent="WIyWlLk6GJQsqaUBKTNV-1">
          <mxGeometry width="50" height="50" relative="1" as="geometry">
            <mxPoint x="290" y="1216" as="sourcePoint" />
            <mxPoint x="779" y="1216" as="targetPoint" />
          </mxGeometry>
        </mxCell>
        <mxCell id="hqegpH38QEARUHd4Mwe3-105" value="[Change Log is Invalid]" style="text;align=center;fontStyle=0;verticalAlign=middle;spacingLeft=3;spacingRight=3;strokeColor=none;rotatable=0;points=[[0,0.5],[1,0.5]];portConstraint=eastwest;html=1;fontSize=10;" vertex="1" parent="WIyWlLk6GJQsqaUBKTNV-1">
          <mxGeometry x="325" y="1212" width="109" height="26" as="geometry" />
        </mxCell>
        <mxCell id="hqegpH38QEARUHd4Mwe3-108" value="" style="endArrow=classic;html=1;rounded=0;" edge="1" parent="WIyWlLk6GJQsqaUBKTNV-1">
          <mxGeometry width="50" height="50" relative="1" as="geometry">
            <mxPoint x="565" y="1241.5" as="sourcePoint" />
            <mxPoint x="464" y="1241.5" as="targetPoint" />
          </mxGeometry>
        </mxCell>
        <mxCell id="hqegpH38QEARUHd4Mwe3-109" value="Error: Migration Failed" style="edgeLabel;html=1;align=center;verticalAlign=middle;resizable=0;points=[];" vertex="1" connectable="0" parent="hqegpH38QEARUHd4Mwe3-108">
          <mxGeometry x="-0.0099" y="-3" relative="1" as="geometry">
            <mxPoint y="-5" as="offset" />
          </mxGeometry>
        </mxCell>
        <mxCell id="hqegpH38QEARUHd4Mwe3-114" value="" style="group" vertex="1" connectable="0" parent="WIyWlLk6GJQsqaUBKTNV-1">
          <mxGeometry x="330" y="1030" width="480" height="170" as="geometry" />
        </mxCell>
        <mxCell id="hqegpH38QEARUHd4Mwe3-112" value="alt" style="shape=umlFrame;whiteSpace=wrap;html=1;pointerEvents=0;width=30;height=18;" vertex="1" parent="hqegpH38QEARUHd4Mwe3-114">
          <mxGeometry y="3.6956521739130435" width="480" height="166.30434782608697" as="geometry" />
        </mxCell>
        <mxCell id="hqegpH38QEARUHd4Mwe3-113" value="[New Change Log Id]&amp;nbsp;" style="text;align=center;fontStyle=0;verticalAlign=middle;spacingLeft=3;spacingRight=3;strokeColor=none;rotatable=0;points=[[0,0.5],[1,0.5]];portConstraint=eastwest;html=1;fontSize=10;" vertex="1" parent="hqegpH38QEARUHd4Mwe3-114">
          <mxGeometry x="20" y="-10" width="110" height="48.04347826086957" as="geometry" />
        </mxCell>
        <mxCell id="hqegpH38QEARUHd4Mwe3-120" value="" style="html=1;points=[[0,0,0,0,5],[0,1,0,0,-5],[1,0,0,0,5],[1,1,0,0,-5]];perimeter=orthogonalPerimeter;outlineConnect=0;targetShapes=umlLifeline;portConstraint=eastwest;newEdgeStyle={&quot;curved&quot;:0,&quot;rounded&quot;:0};" vertex="1" parent="hqegpH38QEARUHd4Mwe3-114">
          <mxGeometry x="330" y="20" width="10" height="40" as="geometry" />
        </mxCell>
        <mxCell id="hqegpH38QEARUHd4Mwe3-130" value="" style="endArrow=none;dashed=1;html=1;dashPattern=1 3;strokeWidth=2;rounded=0;exitX=0;exitY=0.575;exitDx=0;exitDy=0;exitPerimeter=0;entryX=1;entryY=0.806;entryDx=0;entryDy=0;entryPerimeter=0;" edge="1" parent="hqegpH38QEARUHd4Mwe3-114">
          <mxGeometry width="50" height="50" relative="1" as="geometry">
            <mxPoint y="80.6923076923077" as="sourcePoint" />
            <mxPoint x="480" y="82.42926421404674" as="targetPoint" />
          </mxGeometry>
        </mxCell>
        <mxCell id="hqegpH38QEARUHd4Mwe3-131" value="[Existing Change Log Id &amp;amp;&amp;amp; FileHash is Changed]&amp;nbsp;" style="text;align=center;fontStyle=0;verticalAlign=middle;spacingLeft=3;spacingRight=3;strokeColor=none;rotatable=0;points=[[0,0.5],[1,0.5]];portConstraint=eastwest;html=1;fontSize=10;" vertex="1" parent="hqegpH38QEARUHd4Mwe3-114">
          <mxGeometry x="15" y="66.62" width="229" height="48.04" as="geometry" />
        </mxCell>
        <mxCell id="hqegpH38QEARUHd4Mwe3-116" value="" style="endArrow=classic;html=1;rounded=0;exitX=0;exitY=1;exitDx=0;exitDy=-5;exitPerimeter=0;" edge="1" parent="WIyWlLk6GJQsqaUBKTNV-1">
          <mxGeometry width="50" height="50" relative="1" as="geometry">
            <mxPoint x="454" y="1249" as="sourcePoint" />
            <mxPoint x="325" y="1250" as="targetPoint" />
          </mxGeometry>
        </mxCell>
        <mxCell id="hqegpH38QEARUHd4Mwe3-117" value="Error: Migration Failed" style="edgeLabel;html=1;align=center;verticalAlign=middle;resizable=0;points=[];" vertex="1" connectable="0" parent="hqegpH38QEARUHd4Mwe3-116">
          <mxGeometry x="-0.0099" y="-3" relative="1" as="geometry">
            <mxPoint y="-6" as="offset" />
          </mxGeometry>
        </mxCell>
        <mxCell id="hqegpH38QEARUHd4Mwe3-118" value="" style="endArrow=classic;html=1;rounded=0;" edge="1" parent="WIyWlLk6GJQsqaUBKTNV-1">
          <mxGeometry width="50" height="50" relative="1" as="geometry">
            <mxPoint x="315" y="1266" as="sourcePoint" />
            <mxPoint x="175" y="1266" as="targetPoint" />
          </mxGeometry>
        </mxCell>
        <mxCell id="hqegpH38QEARUHd4Mwe3-119" value="&lt;span style=&quot;color: rgba(0, 0, 0, 0); font-family: monospace; font-size: 0px; text-align: start; background-color: rgb(251, 251, 251);&quot;&gt;%3CmxGraphModel%3E%3Croot%3E%3CmxCell%20id%3D%220%22%2F%3E%3CmxCell%20id%3D%221%22%20parent%3D%220%22%2F%3E%3CmxCell%20id%3D%222%22%20value%3D%22Throw%20Exception%22%20style%3D%22edgeLabel%3Bhtml%3D1%3Balign%3Dcenter%3BverticalAlign%3Dmiddle%3Bresizable%3D0%3Bpoints%3D%5B%5D%3B%22%20vertex%3D%221%22%20connectable%3D%220%22%20parent%3D%221%22%3E%3CmxGeometry%20x%3D%22389.97866775946386%22%20y%3D%221220.4961992597537%22%20as%3D%22geometry%22%2F%3E%3C%2FmxCell%3E%3C%2Froot%3E%3C%2FmxGraphModel%3E&lt;/span&gt;" style="edgeLabel;html=1;align=center;verticalAlign=middle;resizable=0;points=[];" vertex="1" connectable="0" parent="hqegpH38QEARUHd4Mwe3-118">
          <mxGeometry x="-0.1571" y="-2" relative="1" as="geometry">
            <mxPoint x="-14" y="-8" as="offset" />
          </mxGeometry>
        </mxCell>
        <mxCell id="hqegpH38QEARUHd4Mwe3-135" value="Error: Migration Failed" style="edgeLabel;html=1;align=center;verticalAlign=middle;resizable=0;points=[];" vertex="1" connectable="0" parent="hqegpH38QEARUHd4Mwe3-118">
          <mxGeometry x="-0.0143" y="1" relative="1" as="geometry">
            <mxPoint y="-10" as="offset" />
          </mxGeometry>
        </mxCell>
        <mxCell id="hqegpH38QEARUHd4Mwe3-121" value="" style="endArrow=classic;html=1;rounded=0;" edge="1" parent="WIyWlLk6GJQsqaUBKTNV-1">
          <mxGeometry width="50" height="50" relative="1" as="geometry">
            <mxPoint x="464" y="1061.5" as="sourcePoint" />
            <mxPoint x="660" y="1061.5" as="targetPoint" />
          </mxGeometry>
        </mxCell>
        <mxCell id="hqegpH38QEARUHd4Mwe3-123" value="Read Script" style="edgeLabel;html=1;align=center;verticalAlign=middle;resizable=0;points=[];" vertex="1" connectable="0" parent="hqegpH38QEARUHd4Mwe3-121">
          <mxGeometry x="0.5102" relative="1" as="geometry">
            <mxPoint x="-52" y="-11" as="offset" />
          </mxGeometry>
        </mxCell>
        <mxCell id="hqegpH38QEARUHd4Mwe3-127" value="" style="endArrow=classic;html=1;rounded=0;exitX=0;exitY=1;exitDx=0;exitDy=-5;exitPerimeter=0;" edge="1" parent="WIyWlLk6GJQsqaUBKTNV-1" source="hqegpH38QEARUHd4Mwe3-94" target="hqegpH38QEARUHd4Mwe3-83">
          <mxGeometry width="50" height="50" relative="1" as="geometry">
            <mxPoint x="200" y="1110" as="sourcePoint" />
            <mxPoint x="220" y="1095" as="targetPoint" />
          </mxGeometry>
        </mxCell>
        <mxCell id="hqegpH38QEARUHd4Mwe3-128" value="Migration Completed" style="edgeLabel;html=1;align=center;verticalAlign=middle;resizable=0;points=[];" vertex="1" connectable="0" parent="hqegpH38QEARUHd4Mwe3-127">
          <mxGeometry x="-0.0779" y="3" relative="1" as="geometry">
            <mxPoint x="9" y="-13" as="offset" />
          </mxGeometry>
        </mxCell>
        <mxCell id="hqegpH38QEARUHd4Mwe3-124" value="" style="endArrow=classic;html=1;rounded=0;" edge="1" parent="WIyWlLk6GJQsqaUBKTNV-1">
          <mxGeometry width="50" height="50" relative="1" as="geometry">
            <mxPoint x="670" y="1075" as="sourcePoint" />
            <mxPoint x="779" y="1075" as="targetPoint" />
          </mxGeometry>
        </mxCell>
        <mxCell id="hqegpH38QEARUHd4Mwe3-125" value="Apply Changes to Database" style="edgeLabel;html=1;align=center;verticalAlign=middle;resizable=0;points=[];" vertex="1" connectable="0" parent="hqegpH38QEARUHd4Mwe3-124">
          <mxGeometry x="0.2294" y="2" relative="1" as="geometry">
            <mxPoint x="-7" y="-15" as="offset" />
          </mxGeometry>
        </mxCell>
        <mxCell id="hqegpH38QEARUHd4Mwe3-134" value="" style="endArrow=classic;html=1;rounded=0;" edge="1" parent="WIyWlLk6GJQsqaUBKTNV-1">
          <mxGeometry width="50" height="50" relative="1" as="geometry">
            <mxPoint x="454" y="1158.5" as="sourcePoint" />
            <mxPoint x="325" y="1158.5" as="targetPoint" />
          </mxGeometry>
        </mxCell>
        <mxCell id="hqegpH38QEARUHd4Mwe3-136" value="Error: Migration Failed" style="edgeLabel;html=1;align=center;verticalAlign=middle;resizable=0;points=[];" vertex="1" connectable="0" parent="hqegpH38QEARUHd4Mwe3-134">
          <mxGeometry x="0.0388" y="1" relative="1" as="geometry">
            <mxPoint x="10" y="-12" as="offset" />
          </mxGeometry>
        </mxCell>
        <mxCell id="hqegpH38QEARUHd4Mwe3-137" value="" style="endArrow=classic;html=1;rounded=0;" edge="1" parent="WIyWlLk6GJQsqaUBKTNV-1" target="hqegpH38QEARUHd4Mwe3-83">
          <mxGeometry width="50" height="50" relative="1" as="geometry">
            <mxPoint x="315" y="1172" as="sourcePoint" />
            <mxPoint x="180" y="1170" as="targetPoint" />
          </mxGeometry>
        </mxCell>
        <mxCell id="hqegpH38QEARUHd4Mwe3-138" value="Error: Migration Failed" style="edgeLabel;html=1;align=center;verticalAlign=middle;resizable=0;points=[];" vertex="1" connectable="0" parent="hqegpH38QEARUHd4Mwe3-137">
          <mxGeometry x="-0.0143" y="-1" relative="1" as="geometry">
            <mxPoint y="-9" as="offset" />
          </mxGeometry>
        </mxCell>
        <mxCell id="hqegpH38QEARUHd4Mwe3-148" value="" style="swimlane;startSize=0;" vertex="1" parent="WIyWlLk6GJQsqaUBKTNV-1">
          <mxGeometry x="60" y="1390" width="930" height="1500" as="geometry">
            <mxRectangle x="340" y="1710" width="50" height="40" as="alternateBounds" />
          </mxGeometry>
        </mxCell>
        <mxCell id="hqegpH38QEARUHd4Mwe3-149" value="" style="ellipse;html=1;shape=startState;fillColor=#000000;strokeColor=#ff0000;" vertex="1" parent="hqegpH38QEARUHd4Mwe3-148">
          <mxGeometry x="430" y="10" width="30" height="30" as="geometry" />
        </mxCell>
        <mxCell id="hqegpH38QEARUHd4Mwe3-150" value="" style="edgeStyle=orthogonalEdgeStyle;html=1;verticalAlign=bottom;endArrow=block;endSize=8;strokeColor=#ff0000;rounded=0;entryX=0.5;entryY=0;entryDx=0;entryDy=0;endFill=1;" edge="1" source="hqegpH38QEARUHd4Mwe3-149" parent="hqegpH38QEARUHd4Mwe3-148" target="hqegpH38QEARUHd4Mwe3-151">
          <mxGeometry relative="1" as="geometry">
            <mxPoint x="445" y="70" as="targetPoint" />
          </mxGeometry>
        </mxCell>
        <mxCell id="hqegpH38QEARUHd4Mwe3-158" style="edgeStyle=orthogonalEdgeStyle;rounded=0;orthogonalLoop=1;jettySize=auto;html=1;exitX=0.5;exitY=1;exitDx=0;exitDy=0;entryX=0.5;entryY=0;entryDx=0;entryDy=0;endArrow=block;endFill=1;" edge="1" parent="hqegpH38QEARUHd4Mwe3-148" source="hqegpH38QEARUHd4Mwe3-151" target="hqegpH38QEARUHd4Mwe3-153">
          <mxGeometry relative="1" as="geometry" />
        </mxCell>
        <mxCell id="hqegpH38QEARUHd4Mwe3-151" value="&lt;span style=&quot;font-size: 11px; text-wrap: nowrap; background-color: rgb(255, 255, 255);&quot;&gt;Application Startup&lt;/span&gt;" style="rounded=1;whiteSpace=wrap;html=1;arcSize=40;fontColor=#000000;fillColor=#FFFFFF;strokeColor=#000000;" vertex="1" parent="hqegpH38QEARUHd4Mwe3-148">
          <mxGeometry x="385" y="66" width="120" height="40" as="geometry" />
        </mxCell>
        <mxCell id="hqegpH38QEARUHd4Mwe3-171" style="edgeStyle=orthogonalEdgeStyle;rounded=0;orthogonalLoop=1;jettySize=auto;html=1;exitX=0.5;exitY=1;exitDx=0;exitDy=0;entryX=0.5;entryY=0;entryDx=0;entryDy=0;" edge="1" parent="hqegpH38QEARUHd4Mwe3-148" source="hqegpH38QEARUHd4Mwe3-153" target="hqegpH38QEARUHd4Mwe3-170">
          <mxGeometry relative="1" as="geometry" />
        </mxCell>
        <mxCell id="hqegpH38QEARUHd4Mwe3-153" value="DatabaseMigrationCoonfiguration Run" style="rounded=1;whiteSpace=wrap;html=1;arcSize=40;fontColor=#000000;fillColor=#FFFFFF;strokeColor=#000000;" vertex="1" parent="hqegpH38QEARUHd4Mwe3-148">
          <mxGeometry x="327.5" y="139" width="235" height="40" as="geometry" />
        </mxCell>
        <mxCell id="hqegpH38QEARUHd4Mwe3-176" value="&lt;font style=&quot;font-size: 12px;&quot;&gt;NO&lt;/font&gt;" style="edgeStyle=orthogonalEdgeStyle;rounded=0;orthogonalLoop=1;jettySize=auto;html=1;exitX=0;exitY=0.5;exitDx=0;exitDy=0;entryX=0.5;entryY=0;entryDx=0;entryDy=0;" edge="1" parent="hqegpH38QEARUHd4Mwe3-148" source="hqegpH38QEARUHd4Mwe3-170" target="hqegpH38QEARUHd4Mwe3-172">
          <mxGeometry relative="1" as="geometry" />
        </mxCell>
        <mxCell id="hqegpH38QEARUHd4Mwe3-179" style="edgeStyle=orthogonalEdgeStyle;rounded=0;orthogonalLoop=1;jettySize=auto;html=1;exitX=1;exitY=0.5;exitDx=0;exitDy=0;entryX=1;entryY=0.5;entryDx=0;entryDy=0;" edge="1" parent="hqegpH38QEARUHd4Mwe3-148" source="hqegpH38QEARUHd4Mwe3-170" target="hqegpH38QEARUHd4Mwe3-174">
          <mxGeometry relative="1" as="geometry">
            <Array as="points">
              <mxPoint x="640" y="243" />
              <mxPoint x="640" y="420" />
            </Array>
          </mxGeometry>
        </mxCell>
        <mxCell id="hqegpH38QEARUHd4Mwe3-181" value="YES" style="edgeLabel;html=1;align=center;verticalAlign=middle;resizable=0;points=[];" vertex="1" connectable="0" parent="hqegpH38QEARUHd4Mwe3-179">
          <mxGeometry x="-0.8036" y="-1" relative="1" as="geometry">
            <mxPoint x="42" y="-2" as="offset" />
          </mxGeometry>
        </mxCell>
        <mxCell id="hqegpH38QEARUHd4Mwe3-170" value="MigrationLogs Collection exists" style="shape=hexagon;perimeter=hexagonPerimeter2;whiteSpace=wrap;html=1;fixedSize=1;" vertex="1" parent="hqegpH38QEARUHd4Mwe3-148">
          <mxGeometry x="385" y="210" width="120" height="66" as="geometry" />
        </mxCell>
        <mxCell id="hqegpH38QEARUHd4Mwe3-177" style="edgeStyle=orthogonalEdgeStyle;rounded=0;orthogonalLoop=1;jettySize=auto;html=1;exitX=0.5;exitY=1;exitDx=0;exitDy=0;entryX=0.5;entryY=0;entryDx=0;entryDy=0;" edge="1" parent="hqegpH38QEARUHd4Mwe3-148" source="hqegpH38QEARUHd4Mwe3-172" target="hqegpH38QEARUHd4Mwe3-175">
          <mxGeometry relative="1" as="geometry" />
        </mxCell>
        <mxCell id="hqegpH38QEARUHd4Mwe3-172" value="Create MigrationLogs Collection" style="rounded=1;whiteSpace=wrap;html=1;arcSize=40;fontColor=#000000;fillColor=#FFFFFF;strokeColor=#000000;" vertex="1" parent="hqegpH38QEARUHd4Mwe3-148">
          <mxGeometry x="180" y="290" width="190" height="40" as="geometry" />
        </mxCell>
        <mxCell id="hqegpH38QEARUHd4Mwe3-185" style="edgeStyle=orthogonalEdgeStyle;rounded=0;orthogonalLoop=1;jettySize=auto;html=1;exitX=0.5;exitY=1;exitDx=0;exitDy=0;entryX=0.5;entryY=0;entryDx=0;entryDy=0;" edge="1" parent="hqegpH38QEARUHd4Mwe3-148" source="hqegpH38QEARUHd4Mwe3-174" target="hqegpH38QEARUHd4Mwe3-184">
          <mxGeometry relative="1" as="geometry" />
        </mxCell>
        <mxCell id="hqegpH38QEARUHd4Mwe3-174" value="" style="rhombus;whiteSpace=wrap;html=1;" vertex="1" parent="hqegpH38QEARUHd4Mwe3-148">
          <mxGeometry x="425" y="400" width="40" height="40" as="geometry" />
        </mxCell>
        <mxCell id="hqegpH38QEARUHd4Mwe3-178" style="edgeStyle=orthogonalEdgeStyle;rounded=0;orthogonalLoop=1;jettySize=auto;html=1;exitX=0.5;exitY=1;exitDx=0;exitDy=0;entryX=0;entryY=0.5;entryDx=0;entryDy=0;" edge="1" parent="hqegpH38QEARUHd4Mwe3-148" source="hqegpH38QEARUHd4Mwe3-175" target="hqegpH38QEARUHd4Mwe3-174">
          <mxGeometry relative="1" as="geometry" />
        </mxCell>
        <mxCell id="hqegpH38QEARUHd4Mwe3-175" value="&lt;span style=&quot;font-size: 11px; text-wrap: nowrap; background-color: rgb(255, 255, 255);&quot;&gt;create migration log document&lt;/span&gt;" style="rounded=1;whiteSpace=wrap;html=1;arcSize=40;fontColor=#000000;fillColor=#FFFFFF;strokeColor=#000000;" vertex="1" parent="hqegpH38QEARUHd4Mwe3-148">
          <mxGeometry x="180" y="360" width="190" height="40" as="geometry" />
        </mxCell>
        <mxCell id="hqegpH38QEARUHd4Mwe3-184" value="DatabaseChangeLogs Collection exists" style="shape=hexagon;perimeter=hexagonPerimeter2;whiteSpace=wrap;html=1;fixedSize=1;" vertex="1" parent="hqegpH38QEARUHd4Mwe3-148">
          <mxGeometry x="377.5" y="480" width="135" height="80" as="geometry" />
        </mxCell>
        <mxCell id="hqegpH38QEARUHd4Mwe3-186" value="&lt;font style=&quot;font-size: 12px;&quot;&gt;NO&lt;/font&gt;" style="edgeStyle=orthogonalEdgeStyle;rounded=0;orthogonalLoop=1;jettySize=auto;html=1;exitX=0;exitY=0.5;exitDx=0;exitDy=0;entryX=0.5;entryY=0;entryDx=0;entryDy=0;" edge="1" parent="hqegpH38QEARUHd4Mwe3-148" target="hqegpH38QEARUHd4Mwe3-190" source="hqegpH38QEARUHd4Mwe3-184">
          <mxGeometry x="-0.0033" relative="1" as="geometry">
            <mxPoint x="345" y="520" as="sourcePoint" />
            <mxPoint as="offset" />
          </mxGeometry>
        </mxCell>
        <mxCell id="hqegpH38QEARUHd4Mwe3-187" style="edgeStyle=orthogonalEdgeStyle;rounded=0;orthogonalLoop=1;jettySize=auto;html=1;entryX=1;entryY=0.5;entryDx=0;entryDy=0;exitX=1;exitY=0.5;exitDx=0;exitDy=0;" edge="1" parent="hqegpH38QEARUHd4Mwe3-148" target="hqegpH38QEARUHd4Mwe3-191" source="hqegpH38QEARUHd4Mwe3-184">
          <mxGeometry relative="1" as="geometry">
            <mxPoint x="540" y="520" as="sourcePoint" />
            <Array as="points">
              <mxPoint x="640" y="520" />
              <mxPoint x="640" y="697" />
            </Array>
          </mxGeometry>
        </mxCell>
        <mxCell id="hqegpH38QEARUHd4Mwe3-188" value="YES" style="edgeLabel;html=1;align=center;verticalAlign=middle;resizable=0;points=[];" vertex="1" connectable="0" parent="hqegpH38QEARUHd4Mwe3-187">
          <mxGeometry x="-0.8036" y="-1" relative="1" as="geometry">
            <mxPoint x="42" y="-2" as="offset" />
          </mxGeometry>
        </mxCell>
        <mxCell id="hqegpH38QEARUHd4Mwe3-189" style="edgeStyle=orthogonalEdgeStyle;rounded=0;orthogonalLoop=1;jettySize=auto;html=1;exitX=0.5;exitY=1;exitDx=0;exitDy=0;entryX=0.5;entryY=0;entryDx=0;entryDy=0;" edge="1" parent="hqegpH38QEARUHd4Mwe3-148" source="hqegpH38QEARUHd4Mwe3-190" target="hqegpH38QEARUHd4Mwe3-193">
          <mxGeometry relative="1" as="geometry" />
        </mxCell>
        <mxCell id="hqegpH38QEARUHd4Mwe3-190" value="&lt;span style=&quot;font-size: 11px; text-wrap: nowrap; background-color: rgb(255, 255, 255);&quot;&gt;Create&amp;nbsp;&lt;/span&gt;DatabaseChangeLogs&lt;span style=&quot;font-size: 11px; text-wrap: nowrap; background-color: rgb(255, 255, 255);&quot;&gt;&amp;nbsp;Collection&lt;/span&gt;" style="rounded=1;whiteSpace=wrap;html=1;arcSize=40;fontColor=#000000;fillColor=#FFFFFF;strokeColor=#000000;" vertex="1" parent="hqegpH38QEARUHd4Mwe3-148">
          <mxGeometry x="155" y="570" width="240" height="40" as="geometry" />
        </mxCell>
        <mxCell id="hqegpH38QEARUHd4Mwe3-195" style="edgeStyle=orthogonalEdgeStyle;rounded=0;orthogonalLoop=1;jettySize=auto;html=1;exitX=0.5;exitY=1;exitDx=0;exitDy=0;entryX=0.5;entryY=0;entryDx=0;entryDy=0;" edge="1" parent="hqegpH38QEARUHd4Mwe3-148" source="hqegpH38QEARUHd4Mwe3-191" target="hqegpH38QEARUHd4Mwe3-196">
          <mxGeometry relative="1" as="geometry">
            <mxPoint x="445" y="750" as="targetPoint" />
          </mxGeometry>
        </mxCell>
        <mxCell id="hqegpH38QEARUHd4Mwe3-191" value="" style="rhombus;whiteSpace=wrap;html=1;" vertex="1" parent="hqegpH38QEARUHd4Mwe3-148">
          <mxGeometry x="425" y="677" width="40" height="40" as="geometry" />
        </mxCell>
        <mxCell id="hqegpH38QEARUHd4Mwe3-192" style="edgeStyle=orthogonalEdgeStyle;rounded=0;orthogonalLoop=1;jettySize=auto;html=1;exitX=0.5;exitY=1;exitDx=0;exitDy=0;entryX=0;entryY=0.5;entryDx=0;entryDy=0;" edge="1" parent="hqegpH38QEARUHd4Mwe3-148" source="hqegpH38QEARUHd4Mwe3-193" target="hqegpH38QEARUHd4Mwe3-191">
          <mxGeometry relative="1" as="geometry" />
        </mxCell>
        <mxCell id="hqegpH38QEARUHd4Mwe3-193" value="&lt;span style=&quot;font-size: 11px; text-wrap: nowrap; background-color: rgb(255, 255, 255);&quot;&gt;create migration log document&lt;/span&gt;" style="rounded=1;whiteSpace=wrap;html=1;arcSize=40;fontColor=#000000;fillColor=#FFFFFF;strokeColor=#000000;" vertex="1" parent="hqegpH38QEARUHd4Mwe3-148">
          <mxGeometry x="180" y="637" width="190" height="40" as="geometry" />
        </mxCell>
        <mxCell id="hqegpH38QEARUHd4Mwe3-198" value="&lt;span style=&quot;font-size: 12px;&quot;&gt;NO&lt;/span&gt;" style="edgeStyle=orthogonalEdgeStyle;rounded=0;orthogonalLoop=1;jettySize=auto;html=1;exitX=0;exitY=0.5;exitDx=0;exitDy=0;entryX=0.5;entryY=0;entryDx=0;entryDy=0;" edge="1" parent="hqegpH38QEARUHd4Mwe3-148" source="hqegpH38QEARUHd4Mwe3-196" target="hqegpH38QEARUHd4Mwe3-197">
          <mxGeometry relative="1" as="geometry" />
        </mxCell>
        <mxCell id="hqegpH38QEARUHd4Mwe3-205" value="YES" style="edgeStyle=orthogonalEdgeStyle;rounded=0;orthogonalLoop=1;jettySize=auto;html=1;exitX=1;exitY=0.5;exitDx=0;exitDy=0;entryX=0.5;entryY=0;entryDx=0;entryDy=0;" edge="1" parent="hqegpH38QEARUHd4Mwe3-148" source="hqegpH38QEARUHd4Mwe3-196" target="hqegpH38QEARUHd4Mwe3-204">
          <mxGeometry x="0.0047" relative="1" as="geometry">
            <mxPoint as="offset" />
          </mxGeometry>
        </mxCell>
        <mxCell id="hqegpH38QEARUHd4Mwe3-196" value="&lt;span style=&quot;font-size: 11px; text-wrap: nowrap; background-color: rgb(255, 255, 255);&quot;&gt;Is Change Logs Valid&lt;/span&gt;" style="shape=hexagon;perimeter=hexagonPerimeter2;whiteSpace=wrap;html=1;fixedSize=1;" vertex="1" parent="hqegpH38QEARUHd4Mwe3-148">
          <mxGeometry x="385" y="750" width="120" height="80" as="geometry" />
        </mxCell>
        <mxCell id="hqegpH38QEARUHd4Mwe3-203" style="edgeStyle=orthogonalEdgeStyle;rounded=0;orthogonalLoop=1;jettySize=auto;html=1;exitX=0.5;exitY=1;exitDx=0;exitDy=0;entryX=0.5;entryY=0;entryDx=0;entryDy=0;" edge="1" parent="hqegpH38QEARUHd4Mwe3-148" source="hqegpH38QEARUHd4Mwe3-197" target="hqegpH38QEARUHd4Mwe3-202">
          <mxGeometry relative="1" as="geometry" />
        </mxCell>
        <mxCell id="hqegpH38QEARUHd4Mwe3-197" value="&lt;span style=&quot;font-size: 11px; text-wrap: nowrap; background-color: rgb(255, 255, 255);&quot;&gt;Migration Failed&lt;/span&gt;" style="rounded=1;whiteSpace=wrap;html=1;arcSize=40;fontColor=#000000;fillColor=#FFFFFF;strokeColor=#000000;" vertex="1" parent="hqegpH38QEARUHd4Mwe3-148">
          <mxGeometry x="245" y="860" width="150" height="40" as="geometry" />
        </mxCell>
        <mxCell id="hqegpH38QEARUHd4Mwe3-202" value="" style="ellipse;html=1;shape=endState;fillColor=#000000;strokeColor=#ff0000;" vertex="1" parent="hqegpH38QEARUHd4Mwe3-148">
          <mxGeometry x="305" y="930" width="30" height="30" as="geometry" />
        </mxCell>
        <mxCell id="hqegpH38QEARUHd4Mwe3-207" style="edgeStyle=orthogonalEdgeStyle;rounded=0;orthogonalLoop=1;jettySize=auto;html=1;exitX=0;exitY=0.5;exitDx=0;exitDy=0;entryX=0.5;entryY=0;entryDx=0;entryDy=0;" edge="1" parent="hqegpH38QEARUHd4Mwe3-148" source="hqegpH38QEARUHd4Mwe3-204" target="hqegpH38QEARUHd4Mwe3-209">
          <mxGeometry relative="1" as="geometry">
            <mxPoint x="392.5" y="1070" as="targetPoint" />
          </mxGeometry>
        </mxCell>
        <mxCell id="hqegpH38QEARUHd4Mwe3-208" value="&lt;span style=&quot;font-size: 12px;&quot;&gt;NO&lt;/span&gt;" style="edgeLabel;html=1;align=center;verticalAlign=middle;resizable=0;points=[];" vertex="1" connectable="0" parent="hqegpH38QEARUHd4Mwe3-207">
          <mxGeometry x="-0.5145" relative="1" as="geometry">
            <mxPoint as="offset" />
          </mxGeometry>
        </mxCell>
        <mxCell id="hqegpH38QEARUHd4Mwe3-216" style="edgeStyle=orthogonalEdgeStyle;rounded=0;orthogonalLoop=1;jettySize=auto;html=1;exitX=1;exitY=0.5;exitDx=0;exitDy=0;entryX=0.5;entryY=0;entryDx=0;entryDy=0;" edge="1" parent="hqegpH38QEARUHd4Mwe3-148" source="hqegpH38QEARUHd4Mwe3-204" target="hqegpH38QEARUHd4Mwe3-215">
          <mxGeometry relative="1" as="geometry" />
        </mxCell>
        <mxCell id="hqegpH38QEARUHd4Mwe3-225" value="YES" style="edgeLabel;html=1;align=center;verticalAlign=middle;resizable=0;points=[];" vertex="1" connectable="0" parent="hqegpH38QEARUHd4Mwe3-216">
          <mxGeometry x="0.2109" y="2" relative="1" as="geometry">
            <mxPoint as="offset" />
          </mxGeometry>
        </mxCell>
        <mxCell id="hqegpH38QEARUHd4Mwe3-204" value="&lt;span style=&quot;font-size: 11px; text-wrap: nowrap; background-color: rgb(255, 255, 255);&quot;&gt;Is Change Log ID New&lt;/span&gt;" style="shape=hexagon;perimeter=hexagonPerimeter2;whiteSpace=wrap;html=1;fixedSize=1;" vertex="1" parent="hqegpH38QEARUHd4Mwe3-148">
          <mxGeometry x="500" y="948" width="120" height="80" as="geometry" />
        </mxCell>
        <mxCell id="hqegpH38QEARUHd4Mwe3-212" value="YES" style="edgeStyle=orthogonalEdgeStyle;rounded=0;orthogonalLoop=1;jettySize=auto;html=1;exitX=1;exitY=0.5;exitDx=0;exitDy=0;" edge="1" parent="hqegpH38QEARUHd4Mwe3-148" source="hqegpH38QEARUHd4Mwe3-209" target="hqegpH38QEARUHd4Mwe3-211">
          <mxGeometry relative="1" as="geometry" />
        </mxCell>
        <mxCell id="hqegpH38QEARUHd4Mwe3-220" style="edgeStyle=orthogonalEdgeStyle;rounded=0;orthogonalLoop=1;jettySize=auto;html=1;exitX=0;exitY=0.5;exitDx=0;exitDy=0;entryX=0;entryY=0.5;entryDx=0;entryDy=0;" edge="1" parent="hqegpH38QEARUHd4Mwe3-148" source="hqegpH38QEARUHd4Mwe3-209" target="hqegpH38QEARUHd4Mwe3-219">
          <mxGeometry relative="1" as="geometry">
            <Array as="points">
              <mxPoint x="190" y="1080" />
              <mxPoint x="190" y="1330" />
            </Array>
          </mxGeometry>
        </mxCell>
        <mxCell id="hqegpH38QEARUHd4Mwe3-221" value="&lt;span style=&quot;font-size: 12px;&quot;&gt;NO&lt;/span&gt;" style="edgeLabel;html=1;align=center;verticalAlign=middle;resizable=0;points=[];" vertex="1" connectable="0" parent="hqegpH38QEARUHd4Mwe3-220">
          <mxGeometry x="-0.8462" y="-3" relative="1" as="geometry">
            <mxPoint as="offset" />
          </mxGeometry>
        </mxCell>
        <mxCell id="hqegpH38QEARUHd4Mwe3-209" value="&lt;span style=&quot;font-size: 11px; text-wrap: nowrap; background-color: rgb(255, 255, 255);&quot;&gt;Is File Hash Changed&lt;/span&gt;" style="shape=hexagon;perimeter=hexagonPerimeter2;whiteSpace=wrap;html=1;fixedSize=1;" vertex="1" parent="hqegpH38QEARUHd4Mwe3-148">
          <mxGeometry x="280" y="1040" width="120" height="80" as="geometry" />
        </mxCell>
        <mxCell id="hqegpH38QEARUHd4Mwe3-214" style="edgeStyle=orthogonalEdgeStyle;rounded=0;orthogonalLoop=1;jettySize=auto;html=1;exitX=0.5;exitY=1;exitDx=0;exitDy=0;entryX=0.5;entryY=0;entryDx=0;entryDy=0;" edge="1" parent="hqegpH38QEARUHd4Mwe3-148" source="hqegpH38QEARUHd4Mwe3-211" target="hqegpH38QEARUHd4Mwe3-213">
          <mxGeometry relative="1" as="geometry" />
        </mxCell>
        <mxCell id="hqegpH38QEARUHd4Mwe3-211" value="&lt;span style=&quot;font-size: 11px; text-wrap: nowrap; background-color: rgb(255, 255, 255);&quot;&gt;Migration Failed&lt;/span&gt;" style="rounded=1;whiteSpace=wrap;html=1;arcSize=40;fontColor=#000000;fillColor=#FFFFFF;strokeColor=#000000;" vertex="1" parent="hqegpH38QEARUHd4Mwe3-148">
          <mxGeometry x="385" y="1140" width="150" height="40" as="geometry" />
        </mxCell>
        <mxCell id="hqegpH38QEARUHd4Mwe3-213" value="" style="ellipse;html=1;shape=endState;fillColor=#000000;strokeColor=#ff0000;" vertex="1" parent="hqegpH38QEARUHd4Mwe3-148">
          <mxGeometry x="445" y="1210" width="30" height="30" as="geometry" />
        </mxCell>
        <mxCell id="hqegpH38QEARUHd4Mwe3-218" style="edgeStyle=orthogonalEdgeStyle;rounded=0;orthogonalLoop=1;jettySize=auto;html=1;exitX=0.5;exitY=1;exitDx=0;exitDy=0;entryX=0.5;entryY=0;entryDx=0;entryDy=0;" edge="1" parent="hqegpH38QEARUHd4Mwe3-148" source="hqegpH38QEARUHd4Mwe3-215" target="hqegpH38QEARUHd4Mwe3-217">
          <mxGeometry relative="1" as="geometry" />
        </mxCell>
        <mxCell id="hqegpH38QEARUHd4Mwe3-215" value="&lt;span style=&quot;font-size: 11px; text-wrap: nowrap; background-color: rgb(255, 255, 255);&quot;&gt;Execute Script&lt;/span&gt;" style="rounded=1;whiteSpace=wrap;html=1;arcSize=40;fontColor=#000000;fillColor=#FFFFFF;strokeColor=#000000;" vertex="1" parent="hqegpH38QEARUHd4Mwe3-148">
          <mxGeometry x="640" y="1040" width="150" height="40" as="geometry" />
        </mxCell>
        <mxCell id="hqegpH38QEARUHd4Mwe3-222" style="edgeStyle=orthogonalEdgeStyle;rounded=0;orthogonalLoop=1;jettySize=auto;html=1;exitX=0.5;exitY=1;exitDx=0;exitDy=0;entryX=1;entryY=0.5;entryDx=0;entryDy=0;" edge="1" parent="hqegpH38QEARUHd4Mwe3-148" source="hqegpH38QEARUHd4Mwe3-217" target="hqegpH38QEARUHd4Mwe3-219">
          <mxGeometry relative="1" as="geometry" />
        </mxCell>
        <mxCell id="hqegpH38QEARUHd4Mwe3-217" value="&lt;span style=&quot;font-size: 11px; text-wrap: nowrap; background-color: rgb(255, 255, 255);&quot;&gt;Create DatabaseChangeLog Document&lt;/span&gt;" style="rounded=1;whiteSpace=wrap;html=1;arcSize=40;fontColor=#000000;fillColor=#FFFFFF;strokeColor=#000000;" vertex="1" parent="hqegpH38QEARUHd4Mwe3-148">
          <mxGeometry x="610" y="1120" width="210" height="40" as="geometry" />
        </mxCell>
        <mxCell id="hqegpH38QEARUHd4Mwe3-224" style="edgeStyle=orthogonalEdgeStyle;rounded=0;orthogonalLoop=1;jettySize=auto;html=1;exitX=0.5;exitY=1;exitDx=0;exitDy=0;entryX=0.5;entryY=0;entryDx=0;entryDy=0;" edge="1" parent="hqegpH38QEARUHd4Mwe3-148" source="hqegpH38QEARUHd4Mwe3-219" target="hqegpH38QEARUHd4Mwe3-223">
          <mxGeometry relative="1" as="geometry" />
        </mxCell>
        <mxCell id="hqegpH38QEARUHd4Mwe3-219" value="" style="rhombus;whiteSpace=wrap;html=1;" vertex="1" parent="hqegpH38QEARUHd4Mwe3-148">
          <mxGeometry x="435" y="1310" width="40" height="40" as="geometry" />
        </mxCell>
        <mxCell id="hqegpH38QEARUHd4Mwe3-223" value="" style="ellipse;html=1;shape=endState;fillColor=#000000;strokeColor=#ff0000;" vertex="1" parent="hqegpH38QEARUHd4Mwe3-148">
          <mxGeometry x="440" y="1390" width="30" height="30" as="geometry" />
        </mxCell>
      </root>
    </mxGraphModel>
  </diagram>
</mxfile>
